<svg xmlns="http://www.w3.org/2000/svg" version="1.1" xmlns:xlink="http://www.w3.org/1999/xlink" xmlns:svgjs="http://svgjs.dev/svgjs" id="BgenPttrnSvgRootPreview" width="100%" height="100%"><defs><pattern x="0" y="0" width="1" height="1" patternUnits="userSpaceOnUse" id="BgenPttrnLayer1"><g id="PatternRootContent1"><g id="BgenPttrnLayer1background"><rect width="1" height="1" id="BgenPttrnBackground1" class="color_1 fill_color_1" fill="#000000"></rect></g></g></pattern><pattern x="0" y="0" width="45" height="136" patternUnits="userSpaceOnUse" id="BgenPttrnLayer2" patternTransform="matrix(0.7,0,0,0.7,0,0)"><g id="PatternRootContent2"><g id="BgenPttrnLayer2Element2"><use xlink:href="#BgenPttrnElement2" x="20.8798828125" y="-73.1201171875" transform="translate(45, -34) scale(1) translate(-45, 34) rotate(0, 45, -34)"></use><use xlink:href="#BgenPttrnElement2" x="-24.1201171875" y="-73.1201171875" transform="translate(0, -34) scale(1) translate(0, 34) rotate(0, 0, -34)"></use><use xlink:href="#BgenPttrnElement2" x="-1.6201171875" y="-5.1201171875" transform="translate(22.5, 34) scale(1) translate(-22.5, -34) rotate(0, 22.5, 34)"></use><use xlink:href="#BgenPttrnElement2" x="-46.6201171875" y="-5.1201171875" transform="translate(-22.5, 34) scale(1) translate(22.5, -34) rotate(0, -22.5, 34)"></use><use xlink:href="#BgenPttrnElement2" x="43.3798828125" y="-5.1201171875" transform="translate(67.5, 34) scale(1) translate(-67.5, -34) rotate(0, 67.5, 34)"></use><use xlink:href="#BgenPttrnElement2" x="20.8798828125" y="62.8798828125" transform="translate(45, 102) scale(1) translate(-45, -102) rotate(0, 45, 102)"></use><use xlink:href="#BgenPttrnElement2" x="-24.1201171875" y="62.8798828125" transform="translate(0, 102) scale(1) translate(0, -102) rotate(0, 0, 102)"></use><use xlink:href="#BgenPttrnElement2" x="-1.6201171875" y="130.8798828125" transform="translate(22.5, 170) scale(1) translate(-22.5, -170) rotate(0, 22.5, 170)"></use><use xlink:href="#BgenPttrnElement2" x="-1.6201171875" y="130.8798828125" transform="translate(22.5, 170) scale(1) translate(-22.5, -170) rotate(0, 22.5, 170)"></use></g></g></pattern><symbol id="BgenPttrnElement2"><g class="color_3 fill_color_3" fill="#191b5c"><path d="M48.24,28.284273147583008L27.027,21.213205337524414L19.956,6.821210263296962e-13L7.071,12.88490104675293L14.142,34.098106384277344L35.355,41.16917419433594Z" transform="matrix(1,0,0,1,0,0)"></path><path d="M0,49.95596694946289L21.213,57.027034759521484L28.284,78.240234375L41.169,65.35533905029297L34.098,44.14213562011719L12.885,37.071067810058594Z" transform="matrix(1,0,0,1,0,0)"></path></g></symbol></defs><rect width="100%" height="100%" id="BgenPttrnRctLayer1" fill="url(&quot;#BgenPttrnLayer1&quot;)"></rect><rect width="100%" height="100%" id="BgenPttrnRctLayer2" fill="url(&quot;#BgenPttrnLayer2&quot;)"></rect></svg>